<svg xmlns="http://www.w3.org/2000/svg" viewBox="0 0 64 64"><polygon points="10.0,12.0 10.0,23.0 14.0,23.0 14.0,12.0" fill="#EBDEBD"/><polygon points="12.0,14.0 23.0,14.0 23.0,10.0 12.0,10.0" fill="#EBDEBD"/><polygon points="50.0,12.0 50.0,23.0 54.0,23.0 54.0,12.0" fill="#EBDEBD"/><polygon points="52.0,10.0 41.0,10.0 41.0,14.0 52.0,14.0" fill="#EBDEBD"/><polygon points="14.0,52.0 14.0,41.0 10.0,41.0 10.0,52.0" fill="#EBDEBD"/><polygon points="12.0,54.0 23.0,54.0 23.0,50.0 12.0,50.0" fill="#EBDEBD"/><polygon points="54.0,52.0 54.0,41.0 50.0,41.0 50.0,52.0" fill="#EBDEBD"/><polygon points="52.0,50.0 41.0,50.0 41.0,54.0 52.0,54.0" fill="#EBDEBD"/><polygon points="32.0,26.0 38.0,32.0 32.0,38.0 26.0,32.0" fill="#EBDEBD"/><circle cx="32" cy="32" r="1.8" fill="#131110"/></svg>