<svg xmlns="http://www.w3.org/2000/svg" viewBox="0 0 64 64"><circle cx="32" cy="32" r="25" fill="none" stroke="#EBDEBD" stroke-width="4"/><polygon points="33.5,11.0 33.5,6.0 30.5,6.0 30.5,11.0" fill="#EBDEBD"/><polygon points="30.5,53.0 30.5,58.0 33.5,58.0 33.5,53.0" fill="#EBDEBD"/><polygon points="11.0,30.5 6.0,30.5 6.0,33.5 11.0,33.5" fill="#EBDEBD"/><polygon points="53.0,33.5 58.0,33.5 58.0,30.5 53.0,30.5" fill="#EBDEBD"/><rect x="23" y="10" width="18" height="4" rx="1" fill="#EBDEBD"/><rect x="23" y="50" width="18" height="4" rx="1" fill="#EBDEBD"/><polygon points="25.0,14.0 39.0,14.0 32.0,31.0" fill="#EBDEBD"/><polygon points="25.0,50.0 39.0,50.0 32.0,33.0" fill="#EBDEBD"/><circle cx="32" cy="32" r="1.8" fill="#131110"/></svg>