<svg xmlns="http://www.w3.org/2000/svg" viewBox="0 0 64 64"><circle cx="32" cy="12" r="3.6" fill="none" stroke="#EBDEBD" stroke-width="2.4"/><polygon points="31.0,15.0 25.0,25.5 27.0,26.5 33.0,16.0" fill="#EBDEBD"/><polygon points="31.0,16.0 37.0,26.5 39.0,25.5 33.0,15.0" fill="#EBDEBD"/><path d="M20,30 A12,9 0 0 1 44,30 Z" fill="#EBDEBD"/><polygon points="22.0,32.0 42.0,32.0 38.0,46.0 26.0,46.0" fill="#EBDEBD"/><rect x="27" y="46" width="10" height="4" rx="1" fill="#EBDEBD"/><circle cx="26" cy="27" r="1.5" fill="#131110"/><circle cx="32" cy="24" r="1.5" fill="#131110"/><circle cx="38" cy="27" r="1.5" fill="#131110"/><path d="M24,18 C20,14 27,11 23,7" fill="none" stroke="#EBDEBD" stroke-width="2.6" stroke-linecap="round"/><path d="M40,18 C44,14 37,11 41,7" fill="none" stroke="#EBDEBD" stroke-width="2.6" stroke-linecap="round"/></svg>