<svg xmlns="http://www.w3.org/2000/svg" viewBox="0 0 64 64"><path d="M20,18 V38 A12,12 0 0 0 44,38 V18 H35 V38 A3,3 0 0 1 29,38 V18 Z" fill="#EBDEBD"/><rect x="20" y="21" width="9" height="3.5" rx="0" fill="#131110"/><rect x="35" y="21" width="9" height="3.5" rx="0" fill="#131110"/><polygon points="40.4,10.6 40.4,7.4 37.2,7.4 37.2,10.6" fill="#EBDEBD"/><polygon points="34.8,17.1 37.6,15.5 36.0,12.7 33.2,14.3" fill="#EBDEBD"/><polygon points="26.4,15.5 29.2,17.1 30.8,14.3 28.0,12.7" fill="#EBDEBD"/><polygon points="23.6,7.4 23.6,10.6 26.8,10.6 26.8,7.4" fill="#EBDEBD"/><polygon points="29.2,0.9 26.4,2.5 28.0,5.3 30.8,3.7" fill="#EBDEBD"/><polygon points="37.6,2.5 34.8,0.9 33.2,3.7 36.0,5.3" fill="#EBDEBD"/><circle cx="32" cy="9" r="5" fill="#EBDEBD"/><circle cx="32" cy="9" r="2" fill="#131110"/><polygon points="21.2,13.7 24.2,17.2 25.8,15.8 22.8,12.3" fill="#EBDEBD"/><polygon points="41.2,12.3 38.2,15.8 39.8,17.2 42.8,13.7" fill="#EBDEBD"/></svg>